<?xml version="1.0" encoding="UTF-8" standalone="no"?>
<!-- Created with Inkscape (http://www.inkscape.org/) -->

<svg
   xmlns:dc="http://purl.org/dc/elements/1.1/"
   xmlns:cc="http://creativecommons.org/ns#"
   xmlns:rdf="http://www.w3.org/1999/02/22-rdf-syntax-ns#"
   xmlns:svg="http://www.w3.org/2000/svg"
   xmlns="http://www.w3.org/2000/svg"
   xmlns:sodipodi="http://sodipodi.sourceforge.net/DTD/sodipodi-0.dtd"
   xmlns:inkscape="http://www.inkscape.org/namespaces/inkscape"
   width="164.42989mm"
   height="148.46072mm"
   viewBox="0 0 164.42989 148.46072"
   version="1.1"
   id="svg8"
   inkscape:version="0.92.1 r15371"
   sodipodi:docname="slerp.svg">
  <sodipodi:namedview
     id="base"
     pagecolor="#ffffff"
     bordercolor="#666666"
     borderopacity="1.0"
     inkscape:pageopacity="0.0"
     inkscape:pageshadow="2"
     inkscape:zoom="0.7"
     inkscape:cx="352.73798"
     inkscape:cy="273.85343"
     inkscape:document-units="mm"
     inkscape:current-layer="layer1"
     showgrid="false"
     inkscape:window-width="1920"
     inkscape:window-height="983"
     inkscape:window-x="0"
     inkscape:window-y="27"
     inkscape:window-maximized="1"
     fit-margin-top="0"
     fit-margin-left="0"
     fit-margin-right="0"
     fit-margin-bottom="0" />
  <defs
     id="defs2">
    <marker
       inkscape:isstock="true"
       style="overflow:visible"
       id="Arrow1Send"
       refX="0"
       refY="0"
       orient="auto"
       inkscape:stockid="Arrow1Send">
      <path
         transform="matrix(-0.2,0,0,-0.2,-1.2,0)"
         style="fill:#000000;fill-opacity:1;fill-rule:evenodd;stroke:#000000;stroke-width:1.00000003pt;stroke-opacity:1"
         d="M 0,0 5,-5 -12.5,0 5,5 Z"
         id="path4723"
         inkscape:connector-curvature="0" />
    </marker>
    <marker
       inkscape:isstock="true"
       style="overflow:visible"
       id="Arrow1Mend"
       refX="0"
       refY="0"
       orient="auto"
       inkscape:stockid="Arrow1Mend">
      <path
         transform="matrix(-0.4,0,0,-0.4,-4,0)"
         style="fill:#000000;fill-opacity:1;fill-rule:evenodd;stroke:#000000;stroke-width:1.00000003pt;stroke-opacity:1"
         d="M 0,0 5,-5 -12.5,0 5,5 Z"
         id="path4717"
         inkscape:connector-curvature="0" />
    </marker>
    <marker
       inkscape:isstock="true"
       style="overflow:visible"
       id="Arrow1Lend"
       refX="0"
       refY="0"
       orient="auto"
       inkscape:stockid="Arrow1Lend">
      <path
         transform="matrix(-0.8,0,0,-0.8,-10,0)"
         style="fill:#000000;fill-opacity:1;fill-rule:evenodd;stroke:#000000;stroke-width:1.00000003pt;stroke-opacity:1"
         d="M 0,0 5,-5 -12.5,0 5,5 Z"
         id="path4711"
         inkscape:connector-curvature="0" />
    </marker>
    <marker
       inkscape:isstock="true"
       style="overflow:visible"
       id="Arrow1Send-3"
       refX="0"
       refY="0"
       orient="auto"
       inkscape:stockid="Arrow1Send">
      <path
         transform="matrix(-0.2,0,0,-0.2,-1.2,0)"
         style="fill:#000000;fill-opacity:1;fill-rule:evenodd;stroke:#000000;stroke-width:1.00000003pt;stroke-opacity:1"
         d="M 0,0 5,-5 -12.5,0 5,5 Z"
         id="path4723-6"
         inkscape:connector-curvature="0" />
    </marker>
    <marker
       inkscape:isstock="true"
       style="overflow:visible"
       id="Arrow1Send-5"
       refX="0"
       refY="0"
       orient="auto"
       inkscape:stockid="Arrow1Send">
      <path
         transform="matrix(-0.2,0,0,-0.2,-1.2,0)"
         style="fill:#000000;fill-opacity:1;fill-rule:evenodd;stroke:#000000;stroke-width:1.00000003pt;stroke-opacity:1"
         d="M 0,0 5,-5 -12.5,0 5,5 Z"
         id="path4723-3"
         inkscape:connector-curvature="0" />
    </marker>
  </defs>
  <metadata
     id="metadata5">
    <rdf:RDF>
      <cc:Work
         rdf:about="">
        <dc:format>image/svg+xml</dc:format>
        <dc:type
           rdf:resource="http://purl.org/dc/dcmitype/StillImage" />
        <dc:title></dc:title>
      </cc:Work>
    </rdf:RDF>
  </metadata>
  <g
     id="layer1"
     inkscape:groupmode="layer"
     inkscape:label="Layer 1"
     transform="translate(305.66452,-3.7328299)">
    <circle
       r="67.575943"
       cy="84.117607"
       cx="-224.97762"
       id="path4700"
       style="fill:none;stroke:#999999;stroke-width:1;stroke-miterlimit:4;stroke-dasharray:none" />
    <path
       sodipodi:open="true"
       d="m -285.6107,54.282434 a 67.575943,67.575943 0 0 1 63.10932,-37.695385 67.575943,67.575943 0 0 1 60.17909,42.216166"
       sodipodi:end="5.8992129"
       sodipodi:start="3.5988689"
       sodipodi:ry="67.575943"
       sodipodi:rx="67.575943"
       sodipodi:cy="84.117607"
       sodipodi:cx="-224.97762"
       sodipodi:type="arc"
       style="fill:none;stroke:#000000;stroke-width:2;stroke-miterlimit:4;stroke-dasharray:none"
       id="circle4702" />
    <circle
       r="1.0975696"
       cx="-225.16733"
       cy="84.106995"
       id="path4704"
       style="fill:#000000;stroke:none;stroke-width:0.77434826;stroke-miterlimit:4;stroke-dasharray:none" />
    <path
       sodipodi:nodetypes="cc"
       inkscape:connector-curvature="0"
       id="path4706"
       d="M -225.17931,84.010406 -164.40116,59.65366"
       style="fill:none;stroke:#000000;stroke-width:1;stroke-linecap:butt;stroke-linejoin:miter;stroke-miterlimit:4;stroke-dasharray:none;stroke-opacity:1;marker-end:url(#Arrow1Send)" />
    <path
       sodipodi:nodetypes="cc"
       inkscape:connector-curvature="0"
       id="path4706-7"
       d="M -225.17931,84.010406 -283.60617,55.284695"
       style="fill:none;stroke:#000000;stroke-width:1;stroke-linecap:butt;stroke-linejoin:miter;stroke-miterlimit:4;stroke-dasharray:none;stroke-opacity:1;marker-end:url(#Arrow1Send-3)" />
    <path
       sodipodi:nodetypes="cc"
       inkscape:connector-curvature="0"
       id="path4706-5"
       d="m -225.17931,84.010406 19.82608,-62.065709"
       style="fill:none;stroke:#000000;stroke-width:1;stroke-linecap:butt;stroke-linejoin:miter;stroke-miterlimit:4;stroke-dasharray:none;stroke-opacity:1;marker-end:url(#Arrow1Send-5)" />
    <path
       sodipodi:open="true"
       d="M -241.65805,76.099709 A 17.606936,17.606936 0 0 1 -224.7734,64.924 a 17.606936,17.606936 0 0 1 16.23448,12.10081"
       sodipodi:end="5.9655354"
       sodipodi:start="3.5150931"
       sodipodi:ry="17.606936"
       sodipodi:rx="17.606936"
       sodipodi:cy="82.524071"
       sodipodi:cx="-225.26501"
       sodipodi:type="arc"
       id="path6406"
       style="fill:none;stroke:#000000;stroke-width:0.76601261;stroke-miterlimit:4;stroke-dasharray:none" />
    <g
       id="g6433"
       transform="translate(-619.13452,-71.179844)">
      <g
         word-spacing="normal"
         letter-spacing="normal"
         font-size-adjust="none"
         font-stretch="normal"
         font-weight="normal"
         font-variant="normal"
         font-style="normal"
         stroke-miterlimit="10.433"
         xml:space="preserve"
         transform="matrix(0.3,0,0,-0.3,-52.5,222.75)"
         id="content"
         style="font-style:normal;font-variant:normal;font-weight:normal;font-stretch:normal;letter-spacing:normal;word-spacing:normal;text-anchor:start;fill:none;fill-opacity:1;fill-rule:evenodd;stroke:#000000;stroke-linecap:butt;stroke-linejoin:miter;stroke-miterlimit:10.43299961;stroke-dasharray:none;stroke-dashoffset:0;stroke-opacity:1"><path
           id="path6428"
           d="m 1240.4,367.91 v 0.02 0.02 0.02 0.02 0.02 0.02 0.02 0.02 0.02 l -0.1,0.03 v 0.02 0.02 0.02 0.02 0.02 0.02 0.01 l -0.1,0.02 v 0.02 0.02 0.01 0.01 l -0.1,0.02 v 0.01 0.01 0.01 l -0.1,0.01 v 0.01 0 0.01 h -0.1 v 0 0 c -0.6,0 -2.5,-1.98 -3.4,-3.44 -1.1,2.69 -3,3.49 -4.6,3.49 v -1.1 c 3.2,0 3.9,-4.03 3.9,-4.37 0,-0.31 -2.7,-11.22 -2.9,-11.42 -0.7,-1.39 -3.5,-4.58 -6.3,-4.58 v 0 c -3,0 -3.2,3.84 -3.2,4.69 0,2.39 1.4,7.81 2.3,9.9 1.5,3.69 4.1,5.78 6.2,5.78 v 1.1 c -5.9,0 -12,-7.38 -12,-14.6 0,-4.87 2.9,-7.97 6.5,-7.97 2.2,0 4.1,1.19 5.9,2.99 -0.4,-1.74 -2.1,-8.47 -2.2,-8.92 -0.4,-1.39 -0.8,-1.6 -3.6,-1.64 -0.7,0 -1.2,0 -1.2,-1 0,-0.05 0,-0.55 0.7,-0.55 1.6,0 3.3,0.16 5,0.16 1.7,0 3.5,-0.16 5.1,-0.16 0.3,0 0.9,0 0.9,1 0,0.55 -0.5,0.55 -1.3,0.55 -2.4,0 -2.4,0.36 -2.4,0.79 0,0.36 0.1,0.66 0.2,1.1 z"
           inkscape:connector-curvature="0"
           style="fill:#000000;stroke-width:0" /><path
           id="path6430"
           d="m 1251.8,361.04 -0.1,0.04 v 0.04 0.04 0.04 0.04 0.04 0.04 0.03 0.03 0.04 0.03 0.03 0.03 0.03 0.02 0.03 0.03 0.02 0.05 0.04 0.04 0.03 l -0.1,0.03 v 0.03 0.02 0.03 l -0.1,0.02 v 0.01 0.02 l -0.1,0.01 v 0.01 0.01 h -0.1 v 0.01 0 0 l -0.1,0.01 v 0 0 h -0.1 v 0 0.01 h -0.1 v 0 0 h -0.1 v 0 h -0.1 v 0 h -0.1 v 0 c -2.2,-2.2 -5.4,-2.23 -6.8,-2.23 v -1.25 c 0.8,0 3.1,0 5,0.96 v -17.76 c 0,-1.16 0,-1.61 -3.5,-1.61 h -1.3 v -1.25 c 0.7,0.03 4.9,0.14 6.2,0.14 1.1,0 5.5,-0.11 6.3,-0.14 v 1.25 h -1.4 c -3.4,0 -3.4,0.45 -3.4,1.61 z"
           inkscape:connector-curvature="0"
           style="fill:#000000;stroke-width:0" /></g>    </g>
    <g
       id="g6885"
       transform="translate(-466.04464,-61.610119)">
      <g
         word-spacing="normal"
         letter-spacing="normal"
         font-size-adjust="none"
         font-stretch="normal"
         font-weight="normal"
         font-variant="normal"
         font-style="normal"
         stroke-miterlimit="10.433"
         xml:space="preserve"
         transform="matrix(0.3,0,0,-0.3,-52.5,222.75)"
         id="g6883"
         style="font-style:normal;font-variant:normal;font-weight:normal;font-stretch:normal;letter-spacing:normal;word-spacing:normal;text-anchor:start;fill:none;fill-opacity:1;fill-rule:evenodd;stroke:#000000;stroke-linecap:butt;stroke-linejoin:miter;stroke-miterlimit:10.43299961;stroke-dasharray:none;stroke-dashoffset:0;stroke-opacity:1"><path
           id="path6879"
           d="m 1240.4,367.91 v 0.02 0.02 0.02 0.02 0.02 0.02 0.02 0.02 0.02 l -0.1,0.03 v 0.02 0.02 0.02 0.02 0.02 0.02 0.01 l -0.1,0.02 v 0.02 0.02 0.01 0.01 l -0.1,0.02 v 0.01 0.01 0.01 l -0.1,0.01 v 0.01 0 0.01 h -0.1 v 0 0 c -0.6,0 -2.5,-1.98 -3.4,-3.44 -1.1,2.69 -3,3.49 -4.6,3.49 v -1.1 c 3.2,0 3.9,-4.03 3.9,-4.37 0,-0.31 -2.7,-11.22 -2.9,-11.42 -0.7,-1.39 -3.5,-4.58 -6.3,-4.58 v 0 c -3,0 -3.2,3.84 -3.2,4.69 0,2.39 1.4,7.81 2.3,9.9 1.5,3.69 4.1,5.78 6.2,5.78 v 1.1 c -5.9,0 -12,-7.38 -12,-14.6 0,-4.87 2.9,-7.97 6.5,-7.97 2.2,0 4.1,1.19 5.9,2.99 -0.4,-1.74 -2.1,-8.47 -2.2,-8.92 -0.4,-1.39 -0.8,-1.6 -3.6,-1.64 -0.7,0 -1.2,0 -1.2,-1 0,-0.05 0,-0.55 0.7,-0.55 1.6,0 3.3,0.16 5,0.16 1.7,0 3.5,-0.16 5.1,-0.16 0.3,0 0.9,0 0.9,1 0,0.55 -0.5,0.55 -1.3,0.55 -2.4,0 -2.4,0.36 -2.4,0.79 0,0.36 0.1,0.66 0.2,1.1 z"
           inkscape:connector-curvature="0"
           style="fill:#000000;stroke-width:0" /><path
           id="path6881"
           d="m 1257.7,345.22 h -1.2 c -0.1,-0.76 -0.5,-2.83 -0.9,-3.17 -0.3,-0.2 -3,-0.2 -3.5,-0.2 h -6.4 c 3.7,3.23 4.9,4.2 7,5.84 2.6,2.06 5,4.22 5,7.53 0,4.22 -3.7,6.8 -8.2,6.8 -4.3,0 -7.2,-3.03 -7.2,-6.23 0,-1.79 1.5,-1.96 1.8,-1.96 0.8,0 1.9,0.6 1.9,1.85 0,0.62 -0.3,1.84 -2.1,1.84 1.1,2.47 3.5,3.23 5.1,3.23 3.5,0 5.3,-2.7 5.3,-5.53 0,-3.03 -2.2,-5.43 -3.3,-6.68 l -8.4,-8.3 c -0.3,-0.31 -0.3,-0.39 -0.3,-1.36 h 14.3 z"
           inkscape:connector-curvature="0"
           style="fill:#000000;stroke-width:0" /></g>    </g>
    <g
       transform="translate(-517.07143,-108.47917)"
       id="g6961">
      <g
         style="font-style:normal;font-variant:normal;font-weight:normal;font-stretch:normal;letter-spacing:normal;word-spacing:normal;text-anchor:start;fill:none;fill-opacity:1;fill-rule:evenodd;stroke:#000000;stroke-linecap:butt;stroke-linejoin:miter;stroke-miterlimit:10.43299961;stroke-dasharray:none;stroke-dashoffset:0;stroke-opacity:1"
         id="g6959"
         transform="matrix(0.3,0,0,-0.3,-52.5,222.75)"
         xml:space="preserve"
         stroke-miterlimit="10.433"
         font-style="normal"
         font-variant="normal"
         font-weight="normal"
         font-stretch="normal"
         font-size-adjust="none"
         letter-spacing="normal"
         word-spacing="normal"><path
           style="fill:#000000;stroke-width:0"
           inkscape:connector-curvature="0"
           d="m 1250.6,367.91 v 0.02 0.02 0.02 0.02 0.02 0.02 0.02 0.02 0.02 l -0.1,0.03 v 0.02 0.02 0.02 0.02 0.02 0.02 0.01 l -0.1,0.02 v 0.02 0.02 0.01 0.01 l -0.1,0.02 v 0.01 0.01 0.01 l -0.1,0.01 v 0.01 0 0.01 h -0.1 v 0 0 c -0.5,0 -2.5,-1.98 -3.4,-3.44 -1.1,2.69 -3,3.49 -4.6,3.49 v -1.1 c 3.2,0 3.9,-4.03 3.9,-4.37 0,-0.31 -2.7,-11.22 -2.9,-11.42 -0.7,-1.39 -3.5,-4.58 -6.3,-4.58 v 0 c -3,0 -3.2,3.84 -3.2,4.69 0,2.39 1.5,7.81 2.3,9.9 1.5,3.69 4.1,5.78 6.2,5.78 v 1.1 c -5.9,0 -12,-7.38 -12,-14.6 0,-4.87 2.9,-7.97 6.5,-7.97 2.2,0 4.1,1.19 5.9,2.99 -0.4,-1.74 -2.1,-8.47 -2.2,-8.92 -0.4,-1.39 -0.8,-1.6 -3.6,-1.64 -0.6,0 -1.1,0 -1.1,-1 0,-0.05 0,-0.55 0.6,-0.55 1.6,0 3.3,0.16 5,0.16 1.7,0 3.5,-0.16 5.1,-0.16 0.3,0 0.9,0 0.9,1 0,0.55 -0.5,0.55 -1.3,0.55 -2.4,0 -2.4,0.36 -2.4,0.79 0,0.36 0.1,0.66 0.2,1.1 z"
           id="path6957" /></g>    </g>
    <g
       id="g7033"
       transform="translate(-558.64881,-53.294643)">
      <g
         word-spacing="normal"
         letter-spacing="normal"
         font-size-adjust="none"
         font-stretch="normal"
         font-weight="normal"
         font-variant="normal"
         font-style="normal"
         stroke-miterlimit="10.433"
         xml:space="preserve"
         transform="matrix(0.3,0,0,-0.3,-52.5,222.75)"
         id="g7031"
         style="font-style:normal;font-variant:normal;font-weight:normal;font-stretch:normal;letter-spacing:normal;word-spacing:normal;text-anchor:start;fill:none;fill-opacity:1;fill-rule:evenodd;stroke:#000000;stroke-linecap:butt;stroke-linejoin:miter;stroke-miterlimit:10.43299961;stroke-dasharray:none;stroke-dashoffset:0;stroke-opacity:1"><path
           id="path7027"
           d="m 1256.7,363.33 v 0.95 l -0.1,0.93 -0.1,0.92 -0.2,0.9 -0.1,0.89 -0.3,0.87 -0.2,0.85 -0.3,0.83 -0.4,0.8 -0.3,0.79 -0.4,0.77 -0.5,0.73 -0.4,0.72 -0.5,0.69 -0.6,0.66 -0.5,0.63 -0.6,0.6 -0.6,0.57 -0.6,0.54 -0.7,0.5 -0.7,0.48 -0.6,0.43 -0.8,0.4 -0.7,0.37 -0.7,0.32 -0.8,0.28 -0.8,0.25 -0.8,0.2 -0.8,0.16 -0.8,0.11 -0.9,0.07 -0.8,0.03 v -1.1 c 5,0 11.8,-4.53 11.8,-17.14 0,-12.7 -7.1,-16.84 -11.8,-16.84 v 0 c -4.9,0 -11.7,4.28 -11.7,16.84 0,12.8 6.9,17.14 11.7,17.14 v 1.1 c -8.9,0 -16.5,-7.97 -16.5,-18.24 0,-10.22 7.6,-17.98 16.5,-17.98 9.1,0 16.6,7.92 16.6,17.98 z"
           inkscape:connector-curvature="0"
           style="fill:#000000;stroke-width:0" /><polygon
           id="polygon7029"
           points="1232.5,367.07 1231.2,367.07 1231.2,359.89 1232.5,359.89 1232.5,361.58 1247.8,361.58 1247.8,359.89 1249,359.89 1249,367.07 1247.8,367.07 1247.8,365.38 1232.5,365.38 "
           style="fill:#000000;stroke-width:0" /></g>    </g>
  </g>
</svg>
